HIERARCHY
ROOT Hips
{
	OFFSET 0.000000 0.000000 0.000000
	CHANNELS 6 Xposition Yposition Zposition Xrotation Yrotation Zrotation
	JOINT LeftUpLeg_virtual
	{
		OFFSET 0.000000 0.000000 0.000000
		CHANNELS 3 Xrotation Yrotation Zrotation
		JOINT LeftUpLeg
		{
			OFFSET 13.026900 -6.336304 -1.092800
			CHANNELS 3 Xrotation Yrotation Zrotation
			JOINT LeftLeg
			{
				OFFSET 0.524474 -46.096886 9.782700
				CHANNELS 3 Xrotation Yrotation Zrotation
				JOINT LeftFoot
				{
					OFFSET -0.524474 -53.427422 -12.948200
					CHANNELS 3 Xrotation Yrotation Zrotation
					JOINT LeftToeBase
					{
						OFFSET 0.192200 -14.009700 16.364100
						CHANNELS 3 Xrotation Yrotation Zrotation
						JOINT LeftToe_End
						{
							OFFSET -1.784700 -0.561700 9.474800
							CHANNELS 3 Xrotation Yrotation Zrotation
							End Site
							{
								OFFSET 0 0 0
							}
						}
					}
				}
			}
		}
	}
	JOINT RightUpLeg_virtual
	{
		OFFSET 0.000000 0.000000 0.000000
		CHANNELS 3 Xrotation Yrotation Zrotation
		JOINT RightUpLeg
		{
			OFFSET -12.883000 -6.336304 -1.092800
			CHANNELS 3 Xrotation Yrotation Zrotation
			JOINT RightLeg
			{
				OFFSET -0.524587 -46.096825 9.782800
				CHANNELS 3 Xrotation Yrotation Zrotation
				JOINT RightFoot
				{
					OFFSET 0.524587 -53.427383 -12.948300
					CHANNELS 3 Xrotation Yrotation Zrotation
					JOINT RightToeBase
					{
						OFFSET -0.192200 -14.009700 16.364100
						CHANNELS 3 Xrotation Yrotation Zrotation
						JOINT RightToe_End
						{
							OFFSET 1.784700 -0.561700 9.474800
							CHANNELS 3 Xrotation Yrotation Zrotation
							End Site
							{
								OFFSET 0 0 0
							}
						}
					}
				}
			}
		}
	}
	JOINT Spine_virtual
	{
		OFFSET 0.000000 0.000000 0.000000
		CHANNELS 3 Xrotation Yrotation Zrotation
		JOINT Spine
		{
			OFFSET 0.072000 7.257294 -0.789700
			CHANNELS 3 Xrotation Yrotation Zrotation
			JOINT Spine1
			{
				OFFSET 0.000000 12.508769 -0.658067
				CHANNELS 3 Xrotation Yrotation Zrotation
				JOINT Spine1_split
				{
					OFFSET 0.000000 12.508769 -0.658067
					CHANNELS 3 Xrotation Yrotation Zrotation
					JOINT Spine2
					{
						OFFSET 0.000000 12.508769 -0.658067
						CHANNELS 3 Xrotation Yrotation Zrotation
						JOINT Neck_virtual
						{
							OFFSET 0.000000 0.000000 0.000000
							CHANNELS 3 Xrotation Yrotation Zrotation
							JOINT Neck
							{
								OFFSET 0.000000 14.033295 7.520400
								CHANNELS 3 Xrotation Yrotation Zrotation
								JOINT Head
								{
									OFFSET 0.000000 8.198502 5.703100
									CHANNELS 3 Xrotation Yrotation Zrotation
									JOINT HeadTop_End
									{
										OFFSET 0.000000 17.760803 13.332701
										CHANNELS 3 Xrotation Yrotation Zrotation
										End Site
										{
											OFFSET 0 0 0
										}
									}
								}
							}
						}
						JOINT LeftShoulder_virtual
						{
							OFFSET 0.000000 0.000000 0.000000
							CHANNELS 3 Xrotation Yrotation Zrotation
							JOINT LeftShoulder
							{
								OFFSET 6.292450 5.785301 -0.669000
								CHANNELS 3 Xrotation Yrotation Zrotation
								JOINT LeftShoulder_split
								{
									OFFSET 6.292450 5.785301 -0.669000
									CHANNELS 3 Xrotation Yrotation Zrotation
									JOINT LeftArm
									{
										OFFSET 13.907140 -6.093903 1.965100
										CHANNELS 3 Xrotation Yrotation Zrotation
										JOINT LeftForeArm
										{
											OFFSET 34.140198 0.000000 0.000000
											CHANNELS 3 Xrotation Yrotation Zrotation
											JOINT LeftHand
											{
												OFFSET 40.960209 0.000000 0.000000
												CHANNELS 3 Xrotation Yrotation Zrotation
												End Site
												{
													OFFSET 0 0 0
												}
											}
										}
									}
								}
							}
						}
						JOINT RightShoulder_virtual
						{
							OFFSET 0.000000 0.000000 0.000000
							CHANNELS 3 Xrotation Yrotation Zrotation
							JOINT RightShoulder
							{
								OFFSET -6.292450 5.785301 -0.669000
								CHANNELS 3 Xrotation Yrotation Zrotation
								JOINT RightShoulder_split
								{
									OFFSET -6.292450 5.785301 -0.669000
									CHANNELS 3 Xrotation Yrotation Zrotation
									JOINT RightArm
									{
										OFFSET -13.907140 -6.093903 1.965100
										CHANNELS 3 Xrotation Yrotation Zrotation
										JOINT RightForeArm
										{
											OFFSET -34.140198 0.000000 0.000000
											CHANNELS 3 Xrotation Yrotation Zrotation
											JOINT RightHand
											{
												OFFSET -40.960209 0.000000 0.000000
												CHANNELS 3 Xrotation Yrotation Zrotation
												End Site
												{
													OFFSET 0 0 0
												}
											}
										}
									}
								}
							}
						}
					}
				}
			}
		}
	}
}
MOTION
Frames: 11
Frame Time: 0.03333333
-1.332372 101.625420 -0.213680 0.000000 0.000000 0.000000 5.257109 -62.697790 6.724746 -32.808243 7.490022 22.918544 37.327151 -5.367344 -6.477832 -8.977380 0.460664 -7.106127 -0.174787 0.933330 0.303985 0.000000 0.000000 0.000000 1.682012 -60.673513 5.073633 -33.583118 -8.882093 -24.656049 45.335948 1.276623 -7.238103 -12.459537 2.482470 16.863981 0.617706 -0.116726 -1.589073 0.000000 0.000000 0.000000 5.009299 -63.817087 5.991608 9.007216 1.115008 0.188912 10.224622 1.167474 -4.990456 0.453289 -1.126506 0.981255 0.000000 0.000000 0.000000 10.724070 0.551373 -3.970352 -17.527049 21.097503 11.213402 7.523844 34.279866 -7.038967 0.000000 0.000000 0.000000 11.108531 1.103515 -4.054550 -4.674415 -14.140448 0.323702 5.178772 -2.303674 -6.728429 -14.003355 8.967698 -25.497327 7.133907 -51.977241 3.242896 0.000000 0.000000 0.000000 11.301892 0.280949 -4.935017 -6.068629 15.365204 9.189245 -0.160032 4.296887 2.343298 -46.332940 -15.325256 32.391202 -147.133968 64.408752 148.143183 0.000000 0.000000 0.000000 
-1.680204 101.574059 0.191917 0.000000 0.000000 0.000000 4.721638 -62.774629 6.411162 -33.260180 7.526412 23.218209 38.014869 -5.177471 -6.455314 -8.673871 0.528986 -7.220069 0.086548 0.977152 0.219699 0.000000 0.000000 0.000000 1.914391 -60.825061 5.133866 -33.611159 -8.313665 -24.565021 44.568685 1.378763 -7.278805 -11.651253 2.783367 18.272230 -0.601528 -0.119684 -1.695373 0.000000 0.000000 0.000000 4.736659 -64.136105 6.004169 9.170767 1.005312 0.204296 9.979526 1.033229 -4.956767 -0.074251 -1.436335 0.891289 0.000000 0.000000 0.000000 10.143050 0.490570 -4.082568 -17.765520 19.989503 11.545610 7.526300 33.314207 -6.804065 0.000000 0.000000 0.000000 10.870379 0.945882 -4.037632 -4.789698 -13.848869 -0.056889 5.078451 -1.672359 -7.060408 -12.732836 9.929670 -25.219186 7.248201 -52.105307 3.021416 0.000000 0.000000 0.000000 11.004732 0.192396 -4.958251 -6.051334 14.179219 9.722288 0.116250 4.542071 3.138981 -43.194516 -20.282945 32.919347 -143.820179 64.397783 144.228747 0.000000 0.000000 0.000000 
-1.851296 101.153290 0.494267 0.000000 0.000000 0.000000 4.446428 -62.178654 6.407269 -34.319430 7.129324 23.262682 39.653565 -4.915021 -6.318844 -8.479608 0.459574 -7.279332 0.466291 1.046978 -0.011908 0.000000 0.000000 0.000000 2.442077 -60.374638 5.543592 -33.745468 -7.595234 -24.713569 44.589247 1.115373 -7.394954 -10.952653 3.267570 19.730912 -1.878010 -0.096349 -1.627340 0.000000 0.000000 0.000000 4.996482 -63.821493 6.638359 9.473925 0.674191 -0.005813 9.488997 0.809946 -5.000716 -0.172484 -2.260439 0.748126 0.000000 0.000000 0.000000 9.336047 0.368747 -4.214303 -18.241383 18.250569 10.974344 5.874269 30.609991 -5.200116 0.000000 0.000000 0.000000 10.306114 0.688050 -4.100883 -4.910716 -13.280466 -0.961073 4.548726 -1.130240 -6.965867 -11.328613 11.273548 -24.760399 5.579218 -53.321135 1.116151 0.000000 0.000000 0.000000 10.340947 0.048367 -4.971066 -5.807106 12.797205 10.295394 -0.517416 5.237366 4.192517 -39.556375 -25.772331 31.988009 -134.223995 60.802330 134.093498 0.000000 0.000000 0.000000 
-1.872912 100.276573 0.743820 0.000000 0.000000 0.000000 4.443456 -61.072341 6.727902 -35.933366 6.294319 22.918906 42.147431 -4.626213 -6.052275 -8.583658 0.217337 -7.248168 0.686170 1.107364 -0.241188 0.000000 0.000000 0.000000 3.142413 -59.345936 6.283133 -33.899414 -6.715407 -25.117227 45.465646 0.396714 -7.625983 -11.128732 3.658464 20.766087 -2.519856 -0.047541 -1.414584 0.000000 0.000000 0.000000 5.648079 -62.769049 7.751993 9.869527 0.217418 -0.367891 8.852246 0.572855 -5.077487 0.165030 -2.882048 0.672786 0.000000 0.000000 0.000000 8.436382 0.255779 -4.344900 -18.982300 15.936414 9.653066 3.021808 26.309537 -2.869585 0.000000 0.000000 0.000000 9.503754 0.416934 -4.197231 -5.020002 -12.422413 -2.238349 3.866346 -1.016572 -6.450361 -10.095663 12.666342 -24.196398 2.575231 -55.362553 -2.071091 0.000000 0.000000 0.000000 9.369210 -0.113507 -4.971144 -5.352766 11.358278 10.817942 -1.698571 5.791095 5.158606 -36.008474 -30.823756 29.979626 -124.333349 53.984654 123.711282 0.000000 0.000000 0.000000 
-1.720421 98.924271 1.048019 0.000000 0.000000 0.000000 4.731474 -59.550896 7.434401 -37.893295 5.074308 22.070069 45.269490 -4.304283 -5.664430 -9.047316 -0.121709 -7.172802 0.638005 1.123237 -0.355809 0.000000 0.000000 0.000000 3.677234 -57.936069 7.176226 -34.292676 -5.584182 -25.793791 47.425900 -0.794183 -7.953339 -12.408518 3.726968 21.251077 -2.428191 0.023016 -1.062551 0.000000 0.000000 0.000000 6.423872 -61.160383 9.093229 10.260200 -0.197932 -0.740750 8.123192 0.415694 -5.115605 0.541921 -3.283070 0.800236 0.000000 0.000000 0.000000 7.548539 0.210926 -4.436029 -19.964218 13.218676 7.878177 -0.318951 20.871069 -0.578856 0.000000 0.000000 0.000000 8.528500 0.237753 -4.250227 -5.091964 -11.425664 -3.729602 3.189760 -1.097374 -5.801235 -9.362265 13.981870 -24.006373 -0.685145 -57.160132 -5.650083 0.000000 0.000000 0.000000 8.235546 -0.229630 -4.910134 -4.874978 10.101609 11.175219 -2.102986 6.093546 5.219276 -33.102286 -34.599604 27.356366 -115.986871 46.007611 114.899614 0.000000 0.000000 0.000000 
-1.535601 97.083824 1.437721 0.000000 0.000000 0.000000 5.196302 -57.760430 8.479055 -40.120661 3.485892 20.680319 48.832581 -3.958059 -5.211820 -9.848092 -0.474856 -7.162272 0.333299 1.085788 -0.320620 0.000000 0.000000 0.000000 3.871785 -56.325203 8.164358 -35.062438 -4.083388 -26.739125 50.613986 -2.307506 -8.315353 -14.271473 3.432701 21.674086 -2.161281 0.106896 -0.621165 0.000000 0.000000 0.000000 7.109369 -59.099380 10.415505 10.546435 -0.421140 -0.983622 7.398265 0.396725 -5.042075 0.881263 -3.590426 1.057687 0.000000 0.000000 0.000000 6.798171 0.273562 -4.436060 -21.143243 10.233617 5.943689 -3.540915 14.900252 1.102394 0.000000 0.000000 0.000000 7.496939 0.200765 -4.200974 -5.138452 -10.420481 -5.304340 2.507009 -1.604193 -5.311027 -9.036774 14.603110 -24.734384 -2.831031 -57.904773 -8.362127 0.000000 0.000000 0.000000 7.090284 -0.237346 -4.758332 -4.494461 9.292407 11.392221 -2.602151 5.221786 4.565770 -30.701308 -36.542632 25.185305 -108.125808 38.962111 106.450943 0.000000 0.000000 0.000000 
-1.314522 94.784935 1.822048 0.000000 0.000000 0.000000 5.466197 -55.694544 9.536858 -42.573949 1.640306 18.726121 52.607534 -3.589540 -4.720071 -10.739742 -0.781072 -7.446812 -0.079363 1.014928 -0.156484 0.000000 0.000000 0.000000 3.736496 -54.465342 9.190010 -36.121852 -1.981015 -27.900621 54.695537 -3.903154 -8.720177 -16.180257 2.802130 22.744217 -2.614470 0.158958 -0.144295 0.000000 0.000000 0.000000 7.462379 -56.727863 11.459493 10.674728 -0.412599 -1.025931 6.770540 0.507387 -4.819098 0.962220 -3.696626 0.892822 0.000000 0.000000 0.000000 6.216033 0.420050 -4.309057 -22.500566 7.147025 3.983024 -6.165122 8.896086 1.929334 0.000000 0.000000 0.000000 6.542517 0.288307 -4.035598 -5.182307 -9.685598 -6.988568 1.694304 -2.279463 -4.991778 -9.338343 13.933678 -26.618729 -2.681377 -57.245864 -9.136428 0.000000 0.000000 0.000000 6.098053 -0.100523 -4.438448 -4.281688 9.149104 11.915309 -3.561987 3.645119 3.554103 -29.245132 -36.654436 24.047363 -99.393186 33.613246 96.544287 0.000000 0.000000 0.000000 
-1.073108 92.103683 2.178406 0.000000 0.000000 0.000000 5.454565 -53.384335 10.440197 -45.292142 -0.304304 16.370282 56.494650 -3.277423 -4.230650 -11.396951 -0.952464 -8.157047 -0.419271 0.936910 0.080637 0.000000 0.000000 0.000000 3.325520 -52.497797 10.076084 -37.054432 0.703922 -29.096807 59.076731 -5.521032 -9.198276 -18.132298 1.736965 24.422596 -3.779529 0.141968 0.342540 0.000000 0.000000 0.000000 7.319828 -54.206919 12.064511 10.622464 -0.157091 -0.841433 6.277150 0.686442 -4.450281 1.030057 -3.548724 0.601137 0.000000 0.000000 0.000000 5.783793 0.612714 -4.016691 -23.963413 4.127243 2.151970 -7.831643 3.464535 1.956508 0.000000 0.000000 0.000000 5.771652 0.443038 -3.761403 -5.245407 -9.396301 -8.654452 0.589317 -2.398812 -5.240028 -10.425164 11.990722 -29.664311 -0.439066 -54.999955 -8.056474 0.000000 0.000000 0.000000 5.402397 0.136547 -3.954702 -4.380664 9.660146 12.966265 -4.507064 2.498150 2.870845 -29.795915 -35.358551 24.042095 -89.881553 29.521225 84.879512 0.000000 0.000000 0.000000 
-0.888040 89.188057 2.498135 0.000000 0.000000 0.000000 5.014467 -50.964546 10.986319 -48.197151 -2.031303 13.876721 60.323186 -3.113775 -3.717787 -11.720832 -1.026384 -9.204294 -0.625915 0.882826 0.340396 0.000000 0.000000 0.000000 2.679799 -50.402254 10.645580 -37.320065 3.618420 -30.237251 63.271533 -7.411983 -9.582539 -20.462436 0.165665 25.778968 -4.298056 0.066422 0.813354 0.000000 0.000000 0.000000 6.627108 -51.507549 12.181632 10.459852 0.249415 -0.496347 5.982178 0.878477 -3.982166 0.895051 -3.374366 0.314215 0.000000 0.000000 0.000000 5.493587 0.787010 -3.589108 -25.411729 1.242536 0.491098 -8.385495 -1.241647 1.448802 0.000000 0.000000 0.000000 5.220309 0.625770 -3.412656 -5.337464 -9.500507 -10.135156 -0.268573 -2.118681 -5.915793 -12.200820 9.241081 -33.504967 2.939066 -51.700943 -5.969885 0.000000 0.000000 0.000000 5.020957 0.404344 -3.382484 -4.789452 10.669332 14.726762 -5.344067 1.654555 2.930534 -32.882604 -33.417281 25.106259 -80.943411 26.297868 72.695418 0.000000 0.000000 0.000000 
-0.800946 86.261871 2.590408 0.000000 0.000000 0.000000 4.039556 -48.758521 11.031240 -51.071257 -3.223035 11.542175 63.924895 -3.177585 -3.043576 -11.812618 -1.079630 -10.368097 -0.656433 0.864939 0.557462 0.000000 0.000000 0.000000 1.807454 -48.113949 10.787065 -36.781907 6.213639 -31.418764 66.964445 -9.617349 -9.675343 -23.389921 -1.724766 26.324104 -3.498420 -0.006819 1.188820 0.000000 0.000000 0.000000 5.362810 -48.683591 11.772915 10.245302 0.683104 -0.114204 5.856905 1.020858 -3.492865 0.479675 -3.162046 0.254336 0.000000 0.000000 0.000000 5.339100 0.895834 -3.102244 -26.714345 -1.421013 -1.071409 -7.952450 -5.283830 0.712573 0.000000 0.000000 0.000000 4.851205 0.782554 -3.036139 -5.497989 -9.950330 -11.287291 -0.702380 -1.483986 -6.609886 -14.250340 6.392175 -37.468820 6.770717 -48.732020 -3.585955 0.000000 0.000000 0.000000 4.842339 0.628173 -2.787203 -5.510526 11.821569 17.197448 -5.549686 1.134542 3.124025 -38.790878 -31.315277 26.083982 -73.598662 24.113565 61.306986 0.000000 0.000000 0.000000 
-0.903637 83.680664 2.506454 0.000000 0.000000 0.000000 2.642174 -46.849681 10.618583 -53.389471 -3.832675 9.489823 66.892803 -3.534933 -2.054971 -11.980193 -1.169909 -11.405487 -0.699958 0.881781 0.698967 0.000000 0.000000 0.000000 0.687849 -45.790357 10.486566 -35.466649 7.935950 -32.734317 69.985690 -11.862790 -9.438349 -26.300675 -3.508369 26.649101 -2.129529 -0.047748 1.303467 0.000000 0.000000 0.000000 3.698570 -45.752323 10.957974 10.010000 1.056801 0.159351 5.831204 1.061942 -3.046515 0.210471 -2.753111 0.414244 0.000000 0.000000 0.000000 5.280069 0.931591 -2.651152 -27.762571 -3.834431 -2.610452 -6.862041 -8.754024 0.013004 0.000000 0.000000 0.000000 4.574478 0.896803 -2.670563 -5.741414 -10.573304 -12.045442 -0.738868 -0.885624 -7.249279 -15.787069 3.815678 -40.843766 10.971632 -47.300293 -0.962653 0.000000 0.000000 0.000000 4.730158 0.739211 -2.291618 -6.419987 12.775640 20.049622 -5.225973 0.949123 2.977471 -45.823114 -29.186904 26.691855 -67.732438 22.855753 51.124748 0.000000 0.000000 0.000000 
